<?xml version="1.0" encoding="UTF-8"?>
<svg id="Layer_1" xmlns="http://www.w3.org/2000/svg" viewBox="0 0 458.63 725.92">
  <rect x="78.15" y="460.5" width="223.26" height="260.99" style="fill: none;"/>
  <text transform="translate(74.23 667.58) scale(.92 1)" style="fill: #231f20; font-family: EthnocentricRg-Regular, Ethnocentric; font-size: 23.54px;"><tspan x="0" y="0">CHAPTER</tspan></text>
  <text transform="translate(254.06 667.26) scale(1.02 1)" style="fill: #231f20; font-family: Bahnschrift-BoldCondensed, Bahnschrift; font-size: 142.67px; font-variation-settings: &apos;wght&apos; 700, &apos;wdth&apos; 75; font-weight: 700; letter-spacing: -.02em;"><tspan x="0" y="0">28</tspan></text>
  <g>
    <rect x="35.28" width="423.35" height="463.13" style="fill: none;"/>
    <path d="M136.58,351.66c5.06-8.63,9.61-16.46,14.22-24.23,1.1-1.86,2.78-1.17,4.22-1.18,17.37-.04,34.75-.02,52.12-.03,1.87,0,3.75.04,5.56-.82,2.32-1.1,3.33-3.39,3.28-6.51-.05-3.13-1.15-5.31-3.53-6.24-1.84-.72-3.71-.65-5.58-.65-13.25-.01-26.5,0-39.75-.03-5.42-.01-10.73-.92-15.76-3.74-4.14-2.32-7.55-5.79-9.75-11.12-1.82-4.41-1.62-4.94,2.08-4.94,16.25-.02,32.5-.13,48.75.04,8.99.09,18-.92,26.96.86,15.64,3.11,22.48,17.73,17.78,37.86-2.49,10.67-8.6,15.85-16.18,18.68-4.22,1.57-8.58,2.24-12.98,2.24-22.87.01-45.75.03-68.62.03-.62,0-1.23-.1-2.81-.23Z" style="fill: #231f20;"/>
    <path d="M240.17,252.3l-15.44,25.91h-111.67s-19.71.8-20.19,23.77,20.63,23.98,19.21,23.85,26.76,0,26.76,0l-14.56,25.82s-54.35,6.91-54.57-49.64c-.22-56.55,53.37-49.71,53.37-49.71h117.07Z" style="fill: #231f20;"/>
    <polyline points="255.29 252.05 339.27 252.05 324.19 277.97 250.96 277.97 250.96 252.05" style="fill: #231f20;"/>
    <polyline points="339.27 325.98 324.19 351.89 250.96 351.89 250.96 325.98 250.96 291.06 338.58 291.06 323.23 313.19 273.15 313.19 273.15 325.55" style="fill: #231f20;"/>
  </g>
  <text transform="translate(264.07 503.66) rotate(-180) scale(1.12 1)" style="fill: #231f20; font-family: FranklinGothic-Medium, &apos;Franklin Gothic Medium&apos;; font-size: 137.66px; font-weight: 500; letter-spacing: -.02em;"><tspan x="0" y="0">‘</tspan></text>
  <g>
    <rect y="379.7" width="310.22" height="346.22" style="fill: none;"/>
    <path d="M74.23,642.59c3.71-6.45,7.04-12.3,10.42-18.11.81-1.39,2.04-.88,3.1-.88,12.73-.03,25.46-.02,38.19-.02,1.37,0,2.75.03,4.07-.61,1.7-.82,2.44-2.53,2.4-4.86-.04-2.34-.84-3.97-2.59-4.66-1.35-.54-2.72-.49-4.09-.49-9.71-.01-19.42,0-29.13-.02-3.97,0-7.86-.69-11.55-2.8-3.03-1.73-5.54-4.33-7.15-8.31-1.33-3.3-1.19-3.69,1.53-3.69,11.91-.02,23.81-.1,35.72.03,6.59.07,13.19-.69,19.75.64,11.46,2.33,16.47,13.26,13.03,28.3-1.83,7.98-6.3,11.85-11.86,13.96-3.1,1.18-6.29,1.67-9.51,1.67-16.76,0-33.52.02-50.28.03-.45,0-.9-.07-2.06-.17Z" style="fill: #231f20;"/>
    <path d="M150.14,568.31l-11.32,19.37H56.99s-14.44.6-14.79,17.77c-.35,17.17,15.12,17.93,14.08,17.83s19.61,0,19.61,0l-10.67,19.3s-39.82,5.16-39.98-37.11,39.11-37.16,39.11-37.16h85.79Z" style="fill: #231f20;"/>
    <polyline points="161.21 568.13 222.76 568.13 211.7 587.5 158.05 587.5 158.05 568.13" style="fill: #231f20;"/>
    <polyline points="222.76 623.39 211.7 642.76 158.05 642.76 158.05 623.39 158.05 597.29 222.25 597.29 211 613.83 174.31 613.83 174.31 623.07" style="fill: #231f20;"/>
  </g>
</svg>