<svg width="1431" height="513" viewBox="0 0 1431 513" fill="none" xmlns="http://www.w3.org/2000/svg">
<g filter="url(#filter0_d_2008_143)">
<path d="M357.48 453.992H387.496L378.984 465H357.48C342.632 465 331.688 455.592 331.688 443.176C331.688 430.632 342.632 422.184 357.48 422.184H387.496L378.984 433.32H357.48C350.312 433.32 344.936 437.608 344.936 443.752C344.936 449.832 350.248 453.992 357.48 453.992ZM444.063 422.184V465H430.879V448.488H405.407V465H392.095V422.184H405.407V437.352H430.879V422.184H444.063ZM520.124 465H470.332L478.332 453.992H489.084C491.644 453.992 494.652 453.992 496.7 454.12C495.548 452.584 493.756 449.96 492.348 447.912L484.668 436.584L464.572 465H448.892L476.348 426.28C478.14 423.784 480.764 421.48 484.924 421.48C488.892 421.48 491.516 423.592 493.372 426.28L520.124 465ZM581.357 438.248C581.357 447.72 573.613 454.056 560.301 454.056H537.901V465H524.717V443.112H561.581C565.677 443.112 568.045 441.128 568.045 438.184C568.045 435.176 565.677 433.32 561.581 433.32H524.717L533.485 422.184H560.365C573.613 422.184 581.357 428.712 581.357 438.248ZM592.639 422.184H641.279L632.703 433.32H617.407V465H604.159V433.32H584.062L592.639 422.184ZM658.594 453.992H695.01L686.498 465H645.282V422.184H694.882L686.306 433.32H658.594V438.44H692.514L684.898 448.168H658.594V453.992ZM752.396 456.68L760.268 465H742.54L733.004 453.672H712.652V465H699.404V443.112H736.652C740.748 443.112 743.948 441.256 743.948 438.312C743.948 434.984 741.196 433.32 736.652 433.32H699.404L708.044 422.184H735.564C745.292 422.184 757.58 425.256 757.58 437.48C757.58 444.136 753.42 449.64 746.38 451.048C747.852 452.136 749.452 453.672 752.396 456.68Z" fill="url(#paint0_linear_2008_143)"/>
<path d="M951.551 465V407.363L1025.95 277.871C1037.29 258.236 1045.58 240.716 1050.83 225.312C1056.08 209.909 1058.7 196.536 1058.7 185.195V180.371C1058.7 171.4 1057.01 164.798 1053.62 160.566C1050.24 156.165 1044.82 153.965 1037.37 153.965C1029.08 153.965 1022.98 156.673 1019.09 162.09C1015.37 167.507 1013.5 175.97 1013.5 187.48V200.684H949.52V187.48C949.52 155.319 956.629 131.367 970.848 115.625C985.236 99.8828 1006.99 92.0117 1036.1 92.0117C1065.22 92.0117 1086.88 99.375 1101.1 114.102C1115.49 128.659 1122.68 150.833 1122.68 180.625V185.449C1122.68 198.991 1119.72 214.648 1113.8 232.422C1107.87 250.026 1098.9 270.085 1086.88 292.598L1028.23 403.047H1122.18V465H951.551ZM1247.1 468.809C1229.15 468.809 1213.75 465.677 1200.89 459.414C1188.19 452.982 1178.46 443.757 1171.69 431.738C1164.92 419.551 1161.53 404.909 1161.53 387.812V329.414C1161.53 316.042 1165.34 304.023 1172.96 293.359C1180.74 282.695 1191.58 274.401 1205.46 268.477C1192.76 263.568 1182.86 256.797 1175.75 248.164C1168.64 239.531 1165.09 229.883 1165.09 219.219V167.422C1165.09 143.385 1172.28 124.85 1186.67 111.816C1201.23 98.6133 1221.37 92.0117 1247.1 92.0117C1273.17 92.0117 1293.31 98.6133 1307.53 111.816C1321.92 124.85 1329.11 143.385 1329.11 167.422V219.219C1329.11 230.052 1325.47 239.785 1318.19 248.418C1311.08 256.882 1301.01 263.568 1287.98 268.477C1302.2 274.401 1313.2 282.695 1320.98 293.359C1328.77 304.023 1332.66 316.042 1332.66 329.414V387.812C1332.66 404.909 1329.28 419.551 1322.51 431.738C1315.74 443.757 1306 452.982 1293.31 459.414C1280.61 465.677 1265.21 468.809 1247.1 468.809ZM1247.1 408.125C1254.71 408.125 1260.64 406.178 1264.87 402.285C1269.1 398.392 1271.22 393.06 1271.22 386.289V324.59C1271.22 317.311 1269.1 311.641 1264.87 307.578C1260.64 303.516 1254.71 301.484 1247.1 301.484C1239.65 301.484 1233.81 303.516 1229.58 307.578C1225.35 311.641 1223.23 317.396 1223.23 324.844V386.797C1223.23 393.568 1225.35 398.815 1229.58 402.539C1233.98 406.263 1239.82 408.125 1247.1 408.125ZM1247.1 241.562C1254.04 241.562 1259.37 239.362 1263.09 234.961C1266.99 230.391 1268.93 224.212 1268.93 216.426V174.277C1268.93 167.168 1266.99 161.582 1263.09 157.52C1259.37 153.457 1254.04 151.426 1247.1 151.426C1240.33 151.426 1234.99 153.457 1231.1 157.52C1227.21 161.582 1225.26 167.253 1225.26 174.531V216.934C1225.26 224.72 1227.21 230.814 1231.1 235.215C1234.99 239.447 1240.33 241.562 1247.1 241.562Z" fill="url(#paint1_linear_2008_143)"/>
<path d="M915.353 87.5464V142.722L878.243 207.908H859.933L886.788 142.722H859.933V87.5464H915.353Z" fill="url(#paint2_linear_2008_143)"/>
<path d="M191.836 368.429C206.061 348.152 218.828 329.761 231.788 311.496C234.893 307.127 239.609 308.73 243.673 308.73C292.482 308.636 341.29 308.667 390.099 308.667C395.351 308.667 400.642 308.761 405.703 306.749C412.221 304.171 415.059 298.796 414.905 291.471C414.752 284.115 411.685 278.99 404.975 276.821C399.799 275.124 394.546 275.281 389.293 275.281C352.064 275.249 314.835 275.281 277.605 275.218C262.384 275.218 247.469 273.049 233.321 266.416C221.704 260.977 212.08 252.803 205.907 240.291C200.808 229.917 201.345 228.691 211.774 228.691C257.438 228.628 303.064 228.377 348.728 228.785C373.995 229.005 399.3 226.616 424.452 230.797C468.391 238.122 487.6 272.483 474.411 319.764C467.394 344.851 450.256 357.017 428.938 363.651C417.052 367.36 404.822 368.901 392.476 368.901C328.216 368.901 263.956 368.964 199.696 368.995C197.971 368.995 196.245 368.775 191.798 368.46L191.836 368.429Z" fill="url(#paint3_linear_2008_143)"/>
<path d="M482.884 134.914L439.481 195.808H125.735C125.735 195.808 70.3705 197.694 69.0286 251.672C67.6866 305.649 127 308.038 123.013 307.724C119.025 307.41 198.2 307.724 198.2 307.724L157.29 368.398C157.29 368.398 4.61533 384.619 4.00187 251.734C3.38841 118.85 153.954 134.914 153.954 134.914H482.884Z" fill="url(#paint4_linear_2008_143)"/>
<path d="M525.326 134.348H761.316L718.911 195.242H513.21V134.348" fill="url(#paint5_linear_2008_143)"/>
<path d="M761.316 308.07L718.91 368.963H513.21V308.07V226.019H759.36L716.227 278.016H575.553V307.064" fill="url(#paint6_linear_2008_143)"/>
</g>
<defs>
<filter id="filter0_d_2008_143" x="0" y="87.5464" width="1336.66" height="389.262" filterUnits="userSpaceOnUse" color-interpolation-filters="sRGB">
<feFlood flood-opacity="0" result="BackgroundImageFix"/>
<feColorMatrix in="SourceAlpha" type="matrix" values="0 0 0 0 0 0 0 0 0 0 0 0 0 0 0 0 0 0 127 0" result="hardAlpha"/>
<feOffset dy="4"/>
<feGaussianBlur stdDeviation="2"/>
<feComposite in2="hardAlpha" operator="out"/>
<feColorMatrix type="matrix" values="0 0 0 0 0 0 0 0 0 0 0 0 0 0 0 0 0 0 0.25 0"/>
<feBlend mode="normal" in2="BackgroundImageFix" result="effect1_dropShadow_2008_143"/>
<feBlend mode="normal" in="SourceGraphic" in2="effect1_dropShadow_2008_143" result="shape"/>
</filter>
<linearGradient id="paint0_linear_2008_143" x1="492.5" y1="404" x2="492.5" y2="483" gradientUnits="userSpaceOnUse">
<stop stop-color="white" stop-opacity="0.77"/>
<stop offset="1" stop-color="#5F8788" stop-opacity="0.65"/>
</linearGradient>
<linearGradient id="paint1_linear_2008_143" x1="1181.16" y1="0" x2="1181.16" y2="512.108" gradientUnits="userSpaceOnUse">
<stop stop-color="white" stop-opacity="0.96"/>
<stop offset="1" stop-color="#5F8788" stop-opacity="0.65"/>
</linearGradient>
<linearGradient id="paint2_linear_2008_143" x1="889.412" y1="332.656" x2="889.412" y2="0" gradientUnits="userSpaceOnUse">
<stop stop-color="#5F8788" stop-opacity="0.65"/>
<stop offset="1" stop-color="white"/>
</linearGradient>
<linearGradient id="paint3_linear_2008_143" x1="335.151" y1="228.303" x2="335.151" y2="368.995" gradientUnits="userSpaceOnUse">
<stop stop-color="white" stop-opacity="0.77"/>
<stop offset="1" stop-color="#5F8788" stop-opacity="0.65"/>
</linearGradient>
<linearGradient id="paint4_linear_2008_143" x1="243.442" y1="134.305" x2="243.442" y2="369.022" gradientUnits="userSpaceOnUse">
<stop stop-color="white" stop-opacity="0.77"/>
<stop offset="1" stop-color="#5F8788" stop-opacity="0.65"/>
</linearGradient>
<linearGradient id="paint5_linear_2008_143" x1="637.263" y1="134.348" x2="637.263" y2="195.242" gradientUnits="userSpaceOnUse">
<stop stop-color="white" stop-opacity="0.77"/>
<stop offset="1" stop-color="#5F8788" stop-opacity="0.65"/>
</linearGradient>
<linearGradient id="paint6_linear_2008_143" x1="637.263" y1="226.019" x2="637.263" y2="368.963" gradientUnits="userSpaceOnUse">
<stop stop-color="white" stop-opacity="0.77"/>
<stop offset="1" stop-color="#5F8788" stop-opacity="0.65"/>
</linearGradient>
</defs>
</svg>
