<?xml version="1.0" encoding="UTF-8"?>
<svg id="Layer_1" xmlns="http://www.w3.org/2000/svg" viewBox="0 0 458.63 725.92">
  <rect x="78.15" y="460.5" width="223.26" height="260.99" style="fill: none;"/>
 <g>
    <rect x="35.28" width="423.35" height="463.13" style="fill: none;"/>
    <path d="M136.58,351.66c5.06-8.63,9.61-16.46,14.22-24.23,1.1-1.86,2.78-1.17,4.22-1.18,17.37-.04,34.75-.02,52.12-.03,1.87,0,3.75.04,5.56-.82,2.32-1.1,3.33-3.39,3.28-6.51-.05-3.13-1.15-5.31-3.53-6.24-1.84-.72-3.71-.65-5.58-.65-13.25-.01-26.5,0-39.75-.03-5.42-.01-10.73-.92-15.76-3.74-4.14-2.32-7.55-5.79-9.75-11.12-1.82-4.41-1.62-4.94,2.08-4.94,16.25-.02,32.5-.13,48.75.04,8.99.09,18-.92,26.96.86,15.64,3.11,22.48,17.73,17.78,37.86-2.49,10.67-8.6,15.85-16.18,18.68-4.22,1.57-8.58,2.24-12.98,2.24-22.87.01-45.75.03-68.62.03-.62,0-1.23-.1-2.81-.23Z" style="fill: #231f20;"/>
    <path d="M240.17,252.3l-15.44,25.91h-111.67s-19.71.8-20.19,23.77,20.63,23.98,19.21,23.85,26.76,0,26.76,0l-14.56,25.82s-54.35,6.91-54.57-49.64c-.22-56.55,53.37-49.71,53.37-49.71h117.07Z" style="fill: #231f20;"/>
    <polyline points="255.29 252.05 339.27 252.05 324.19 277.97 250.96 277.97 250.96 252.05" style="fill: #231f20;"/>
    <polyline points="339.27 325.98 324.19 351.89 250.96 351.89 250.96 325.98 250.96 291.06 338.58 291.06 323.23 313.19 273.15 313.19 273.15 325.55" style="fill: #231f20;"/>
  </g>
</svg>