<svg width="250" height="78" viewBox="0 0 250 78" fill="none" xmlns="http://www.w3.org/2000/svg">
<path d="M62.0068 77.2875C66.7025 70.5938 70.9173 64.5227 75.1953 58.4932C76.2205 57.0507 77.7773 57.5799 79.119 57.5799C95.2313 57.5488 111.344 57.5592 127.456 57.5592C129.19 57.5592 130.936 57.5903 132.607 56.9261C134.759 56.0752 135.695 54.3006 135.645 51.8825C135.594 49.4541 134.582 47.7626 132.367 47.0465C130.658 46.4861 128.924 46.538 127.19 46.538C114.9 46.5276 102.61 46.538 90.3204 46.5172C85.2956 46.5172 80.372 45.8012 75.7016 43.6114C71.8666 41.8161 68.6897 39.1179 66.6519 34.9875C64.9685 31.5628 65.1457 31.1581 68.5884 31.1581C83.6628 31.1373 98.7246 31.0543 113.799 31.1892C122.14 31.2618 130.493 30.4731 138.796 31.8534C153.301 34.2714 159.642 45.6143 155.288 61.2226C152.972 69.5041 147.315 73.5203 140.277 75.71C136.354 76.9346 132.316 77.4431 128.241 77.4431C107.028 77.4431 85.8145 77.4639 64.6015 77.4742C64.0319 77.4742 63.4623 77.4016 61.9941 77.2978L62.0068 77.2875Z" fill="url(#paint0_linear_2008_160)"/>
<path d="M158.086 0.201039L143.758 20.3029H40.1864C40.1864 20.3029 21.9098 20.9255 21.4668 38.7442C21.0238 56.5629 40.6041 57.3517 39.2878 57.2479C37.9714 57.1441 64.108 57.2479 64.108 57.2479L50.6031 77.2771C50.6031 77.2771 0.203128 82.632 0.00061715 38.765C-0.201894 -5.10205 49.5019 0.201039 49.5019 0.201039H158.086Z" fill="url(#paint1_linear_2008_160)"/>
<path d="M172.096 0.0142212H250L236.001 20.116H168.097V0.0142212" fill="url(#paint2_linear_2008_160)"/>
<path d="M250 57.362L236.001 77.4638H168.097V57.362V30.2759H249.354L235.115 47.4408H188.677V57.0299" fill="url(#paint3_linear_2008_160)"/>
<defs>
<linearGradient id="paint0_linear_2008_160" x1="109.317" y1="31.0298" x2="109.317" y2="77.4742" gradientUnits="userSpaceOnUse">
<stop offset="1" stop-color="#002B1D"/>
</linearGradient>
<linearGradient id="paint1_linear_2008_160" x1="79.0429" y1="0" x2="79.0429" y2="77.4833" gradientUnits="userSpaceOnUse">
<stop offset="1" stop-color="#002B1D"/>
</linearGradient>
<linearGradient id="paint2_linear_2008_160" x1="209.048" y1="0.0142212" x2="209.048" y2="20.116" gradientUnits="userSpaceOnUse">
<stop stop-color="#002B1D"/>
</linearGradient>
<linearGradient id="paint3_linear_2008_160" x1="209.048" y1="30.2759" x2="209.048" y2="77.4638" gradientUnits="userSpaceOnUse">
<stop offset="1" stop-color="#002B1D"/>
</linearGradient>
</defs>
</svg>
