<svg width="1465" height="146" viewBox="0 0 1465 146" fill="none" xmlns="http://www.w3.org/2000/svg">
<path d="M18.3906 143.441C15.5911 143.441 13.2474 142.628 11.3594 141C9.53646 139.372 8.625 136.996 8.625 133.871C8.625 124.626 8.78776 113.331 9.11328 99.9844C9.4388 86.638 10.6432 69.8086 12.7266 49.4961C10.4479 52.1654 8.52734 54.0859 6.96484 55.2578C5.40234 56.4297 4.13281 57.0156 3.15625 57.0156C1.52865 57.0156 0.714844 55.681 0.714844 53.0117C0.714844 50.8633 1.26823 48.1289 2.375 44.8086C3.48177 41.4883 5.07682 37.9401 7.16016 34.1641C9.24349 30.388 11.8151 26.6445 14.875 22.9336C18 19.1576 21.5807 15.8047 25.6172 12.875C26.4635 12.3542 27.3424 12.0938 28.2539 12.0938C30.5326 12.0938 32.5833 13.5911 34.4062 16.5859C36.2292 19.5807 37.1406 22.8034 37.1406 26.2539C37.1406 27.7513 37.043 29.0534 36.8477 30.1602L34.9922 37.9727C34.3411 40.7721 33.5273 46.1758 32.5508 54.1836C31.8346 60.4336 31.2161 67.4974 30.6953 75.375C30.2396 83.2526 29.849 91.1302 29.5234 99.0078C29.263 106.885 28.9701 113.982 28.6445 120.297C30.5326 117.953 32.8438 114.763 35.5781 110.727C38.3125 106.625 41.0469 102.393 43.7812 98.0312C46.5156 93.6693 48.8268 89.9583 50.7148 86.8984L54.5234 80.8438L55.8906 78.4023L63.2148 60.3359L70.5391 42.6602C72.8828 36.931 75.3568 32.5039 77.9609 29.3789C80.5651 26.2539 83.3971 24.6914 86.457 24.6914C88.931 24.6914 90.9167 25.1471 92.4141 26.0586C93.9115 26.9049 94.6602 28.0117 94.6602 29.3789C94.6602 32.3086 93.7487 35.987 91.9258 40.4141C90.1029 44.776 88.1172 49.431 85.9688 54.3789C83.8203 59.3268 82.2578 64.1445 81.2812 68.832C80.9557 74.4961 80.6953 79.3138 80.5 83.2852C80.3047 87.2565 80.207 90.9023 80.207 94.2227C80.207 98.3242 80.2396 102.621 80.3047 107.113C80.3698 111.605 80.6628 115.902 81.1836 120.004C85.0898 114.405 89.1914 108.122 93.4883 101.156C97.8503 94.1901 101.984 87.0286 105.891 79.6719C109.862 72.25 113.312 64.8932 116.242 57.6016C119.237 50.3099 121.353 43.474 122.59 37.0938L123.859 29.7695C123.859 29.444 123.892 29.1836 123.957 28.9883C124.022 28.793 124.055 28.5326 124.055 28.207C124.836 24.3659 125.845 21.306 127.082 19.0273C128.384 16.7487 130.76 15.6094 134.211 15.6094C137.01 15.6094 139.029 15.9023 140.266 16.4883C141.568 17.0742 142.219 18.3763 142.219 20.3945C142.219 21.2409 142.186 21.8919 142.121 22.3477L141.73 24.6914C138.605 42.1393 129.784 65.056 115.266 93.4414C109.992 104.249 105.37 113.298 101.398 120.59C97.4922 127.882 93.6836 133.383 89.9727 137.094C86.2617 140.74 82.0625 142.562 77.375 142.562C74.9661 142.562 72.9154 141.977 71.2227 140.805C69.5299 139.633 68.0651 137.354 66.8281 133.969C65.5911 130.648 64.5495 125.961 63.7031 119.906C62.8568 113.852 62.1081 105.909 61.457 96.0781L39.6797 128.012C35.8385 133.611 32.3555 137.582 29.2305 139.926C26.1055 142.27 22.4922 143.441 18.3906 143.441ZM142.707 143.441C137.499 143.441 133.039 142.172 129.328 139.633C125.682 137.029 122.883 133.643 120.93 129.477C119.042 125.245 118.098 120.72 118.098 115.902C118.098 111.671 119.302 106.951 121.711 101.742C124.185 96.4688 127.701 91.4232 132.258 86.6055C136.815 81.7878 142.251 77.8164 148.566 74.6914C154.947 71.5013 161.88 69.9062 169.367 69.9062C174.771 69.9062 178.807 71.2083 181.477 73.8125C184.146 76.4167 185.48 80.0299 185.48 84.6523C185.48 87.3867 184.764 90.2513 183.332 93.2461C181.9 96.2409 179.426 99.2682 175.91 102.328C172.395 105.453 167.674 108.643 161.75 111.898C155.891 115.089 148.534 118.311 139.68 121.566C140.396 125.603 143.651 127.621 149.445 127.621C153.938 127.621 158.788 126.71 163.996 124.887C169.204 122.999 174.217 120.85 179.035 118.441C183.853 116.098 187.987 113.884 191.438 111.801C194.888 109.717 196.939 108.546 197.59 108.285C198.176 107.895 198.697 107.667 199.152 107.602C199.673 107.536 200.129 107.504 200.52 107.504C202.082 107.504 203.156 108.122 203.742 109.359C204.393 110.531 204.719 111.508 204.719 112.289C204.719 112.875 204.654 113.591 204.523 114.438C204.393 115.219 203.905 116.13 203.059 117.172C202.212 118.018 199.738 119.874 195.637 122.738C191.535 125.603 187.141 128.37 182.453 131.039C176.724 134.229 170.344 137.094 163.312 139.633C156.281 142.172 149.413 143.441 142.707 143.441ZM138.215 110.336C142.447 108.122 146.743 105.551 151.105 102.621C155.533 99.6263 158.885 97.4453 161.164 96.0781C164.224 94.125 166.242 92.3997 167.219 90.9023C168.326 89.2747 168.879 87.9076 168.879 86.8008C168.879 85.8242 168.553 85.043 167.902 84.457C167.316 83.8711 166.633 83.513 165.852 83.3828L164.973 83.2852H164.094C160.513 83.2852 157.193 84.3268 154.133 86.4102C151.138 88.4284 148.599 90.9674 146.516 94.0273C144.302 97.2174 142.512 100.212 141.145 103.012C139.842 105.811 138.866 108.253 138.215 110.336ZM202.961 143.441C197.622 143.441 193.944 142.107 191.926 139.438C189.973 136.768 188.996 133.513 188.996 129.672C188.996 126.482 189.452 123.227 190.363 119.906C191.34 116.521 192.479 113.428 193.781 110.629C196.06 105.551 198.371 100.505 200.715 95.4922C203.059 90.4792 205.207 85.8893 207.16 81.7227L236.75 18.7344C238.247 15.4792 240.493 13.3633 243.488 12.3867C246.483 11.4102 249.217 11.5078 251.691 12.6797C254.23 13.7865 255.5 15.8372 255.5 18.832C255.5 20.0039 255.207 21.2409 254.621 22.543C254.1 23.8451 253.417 25.2448 252.57 26.7422C250.227 31.1693 247.232 36.9961 243.586 44.2227C240.005 51.4492 236.034 59.5872 231.672 68.6367C226.919 78.5977 222.915 86.9635 219.66 93.7344C216.47 100.44 213.475 106.788 210.676 112.777C209.96 114.275 209.243 116.033 208.527 118.051C207.876 120.004 207.551 121.762 207.551 123.324C207.551 125.473 208.495 126.547 210.383 126.547C212.466 126.547 215.233 125.701 218.684 124.008C222.199 122.25 225.845 120.069 229.621 117.465C233.462 114.926 237.173 112.289 240.754 109.555C244.335 106.755 247.655 104.053 250.715 101.449C251.757 100.603 252.993 100.18 254.426 100.18C257.421 100.18 258.918 101.84 258.918 105.16C258.918 106.527 258.462 108.057 257.551 109.75C256.639 111.443 255.044 113.103 252.766 114.73C248.599 118.572 244.4 122.217 240.168 125.668C236.001 129.053 231.802 132.081 227.57 134.75C223.404 137.354 219.237 139.438 215.07 141C210.904 142.628 206.867 143.441 202.961 143.441ZM259.895 143.441C253.254 143.441 248.143 141.521 244.562 137.68C240.982 133.773 239.191 129.118 239.191 123.715C239.191 119.288 240.656 114.047 243.586 107.992C246.581 101.872 250.52 95.9479 255.402 90.2188C260.35 84.3594 265.884 79.5417 272.004 75.7656C278.189 71.9245 284.341 70.0039 290.461 70.0039C293.456 70.0039 295.93 70.6875 297.883 72.0547C299.901 73.4219 300.91 75.7331 300.91 78.9883C300.91 81.7227 300.487 84.75 299.641 88.0703C298.794 91.3255 297.427 94.1576 295.539 96.5664C293.651 98.9102 291.112 100.082 287.922 100.082C286.62 100.082 285.773 99.8867 285.383 99.4961C285.057 99.1055 284.895 98.4219 284.895 97.4453L284.992 94.8086V91.5859C284.992 90.4141 284.829 89.4375 284.504 88.6562C284.178 87.8099 283.365 87.3867 282.062 87.3867C279.979 87.3867 277.505 88.526 274.641 90.8047C271.776 93.0182 268.911 95.9805 266.047 99.6914C263.378 103.272 261.164 106.853 259.406 110.434C257.648 113.949 256.77 116.911 256.77 119.32C256.77 121.599 257.551 123.389 259.113 124.691C260.741 125.993 262.922 126.645 265.656 126.645C269.953 126.645 274.673 125.635 279.816 123.617C284.96 121.599 289.842 119.255 294.465 116.586C298.957 113.982 302.896 111.54 306.281 109.262C309.732 106.983 311.783 105.681 312.434 105.355C313.605 104.835 314.582 104.574 315.363 104.574C316.991 104.574 318.098 105.16 318.684 106.332C319.27 107.504 319.562 108.513 319.562 109.359C319.562 109.945 319.497 110.661 319.367 111.508C319.237 112.289 318.749 113.201 317.902 114.242C316.991 115.349 314.615 117.432 310.773 120.492C306.932 123.552 302.701 126.612 298.078 129.672C292.544 133.383 286.359 136.605 279.523 139.34C272.688 142.074 266.145 143.441 259.895 143.441ZM323.176 143.441C320.572 143.441 317.609 142.725 314.289 141.293C311.034 139.926 308.202 137.712 305.793 134.652C303.384 131.592 302.18 127.556 302.18 122.543C302.18 118.507 303.124 113.559 305.012 107.699C306.965 101.84 309.927 96.0456 313.898 90.3164C317.935 84.5221 323.111 79.7044 329.426 75.8633C335.741 71.957 343.065 70.0039 351.398 70.0039C354.719 70.0039 358.234 70.6224 361.945 71.8594C365.721 73.0964 368.944 75.1797 371.613 78.1094C374.283 80.974 375.617 84.9453 375.617 90.0234C375.617 94.1901 374.576 99.0404 372.492 104.574C373.664 106.007 375.324 106.723 377.473 106.723C379.491 106.723 381.835 105.909 384.504 104.281C387.173 102.654 389.81 100.668 392.414 98.3242C395.083 95.9805 397.492 93.6367 399.641 91.293C401.854 88.9492 403.579 87.0612 404.816 85.6289C405.272 85.1732 405.826 84.9453 406.477 84.9453C407.909 84.9453 408.951 85.8568 409.602 87.6797C410.253 89.5026 410.122 91.8138 409.211 94.6133C408.299 97.3477 406.184 100.18 402.863 103.109C400.91 105.193 398.501 107.764 395.637 110.824C392.837 113.819 389.777 116.488 386.457 118.832C383.202 121.111 379.882 122.25 376.496 122.25C373.046 122.25 369.79 121.143 366.73 118.93C361.913 126.482 355.793 132.471 348.371 136.898C340.949 141.26 332.551 143.441 323.176 143.441ZM331.672 126.352C335.773 126.352 339.615 124.984 343.195 122.25C346.776 119.516 349.673 116.065 351.887 111.898C354.1 107.732 355.207 103.467 355.207 99.1055C355.207 97.4128 355.012 95.6549 354.621 93.832C354.296 91.944 353.514 90.3815 352.277 89.1445C351.04 87.8424 349.055 87.1914 346.32 87.1914C342.284 87.1914 338.475 88.4935 334.895 91.0977C331.314 93.6367 328.384 96.957 326.105 101.059C323.892 105.095 322.785 109.327 322.785 113.754C322.785 115.382 322.98 117.204 323.371 119.223C323.762 121.176 324.576 122.868 325.812 124.301C327.115 125.668 329.068 126.352 331.672 126.352ZM391.047 143.539C388.703 143.539 386.848 142.79 385.48 141.293C384.113 139.796 383.43 138.005 383.43 135.922C383.43 134.229 384.341 131.039 386.164 126.352C387.987 121.664 390.103 116.651 392.512 111.312C395.116 105.648 397.622 100.147 400.031 94.8086C402.505 89.4701 404.458 85.1081 405.891 81.7227C407.062 78.9232 408.592 76.8398 410.48 75.4727C412.434 74.1055 414.354 73.4219 416.242 73.4219C417.87 73.4219 419.302 74.0404 420.539 75.2773C421.841 76.4492 422.492 78.1745 422.492 80.4531C422.492 82.0807 422.102 83.9362 421.32 86.0195C423.664 83.8711 426.203 81.5599 428.938 79.0859C431.737 76.5469 434.96 74.3984 438.605 72.6406C442.251 70.8828 446.516 70.0039 451.398 70.0039C455.044 70.0039 458.234 70.9479 460.969 72.8359C463.703 74.724 465.201 77.8815 465.461 82.3086C468.521 79.2487 472.069 76.4492 476.105 73.9102C480.142 71.306 485.025 70.0039 490.754 70.0039C495.116 70.0039 498.924 71.013 502.18 73.0312C505.435 74.9844 507.062 78.4349 507.062 83.3828C507.062 87.2891 506.151 91 504.328 94.5156C502.57 98.0312 500.487 101.254 498.078 104.184C497.167 105.29 495.767 106.918 493.879 109.066C492.056 111.215 490.363 113.526 488.801 116C487.303 118.474 486.555 120.785 486.555 122.934C486.555 124.366 486.978 125.277 487.824 125.668C488.736 126.059 489.908 126.254 491.34 126.254C494.074 126.254 497.004 125.473 500.129 123.91C503.319 122.283 506.444 120.297 509.504 117.953C512.629 115.609 515.461 113.201 518 110.727C520.604 108.253 522.72 106.137 524.348 104.379C525.129 103.533 526.105 103.109 527.277 103.109C528.449 103.109 529.491 103.63 530.402 104.672C531.379 105.714 531.867 107.081 531.867 108.773C531.867 110.076 531.477 111.508 530.695 113.07C529.914 114.633 528.579 116.163 526.691 117.66C522.199 122.022 517.447 126.189 512.434 130.16C507.486 134.066 502.473 137.257 497.395 139.73C492.316 142.204 487.303 143.441 482.355 143.441C477.538 143.441 473.632 142.302 470.637 140.023C467.707 137.745 466.242 134.132 466.242 129.184C466.242 124.757 467.316 120.622 469.465 116.781C471.678 112.875 474.152 109.262 476.887 105.941C479.686 102.556 481.965 99.4635 483.723 96.6641C484.374 95.6224 484.895 94.6458 485.285 93.7344C485.676 92.7578 485.871 91.7812 485.871 90.8047C485.871 88.3958 484.732 87.1914 482.453 87.1914C478.612 87.1914 474.868 88.3958 471.223 90.8047C467.577 93.1484 464.224 96.1432 461.164 99.7891C457.974 103.5 455.142 107.309 452.668 111.215C450.259 115.121 448.046 118.669 446.027 121.859C444.79 124.138 443.521 127.003 442.219 130.453C440.917 133.839 439.322 136.866 437.434 139.535C435.611 142.204 433.267 143.539 430.402 143.539C428.71 143.539 427.017 142.986 425.324 141.879C423.697 140.772 422.818 139.372 422.688 137.68C422.688 133.448 423.99 128.923 426.594 124.105C429.198 119.288 432.193 114.503 435.578 109.75C439.029 104.997 441.958 100.635 444.367 96.6641C445.018 95.6224 445.539 94.6458 445.93 93.7344C446.32 92.7578 446.516 91.7812 446.516 90.8047C446.516 88.3958 445.376 87.1914 443.098 87.1914C439.257 87.1914 435.513 88.3958 431.867 90.8047C428.221 93.1484 424.868 96.1432 421.809 99.7891C418.618 103.5 415.786 107.309 413.312 111.215C410.904 115.121 408.69 118.669 406.672 121.859C405.435 124.138 404.165 127.003 402.863 130.453C401.561 133.839 399.966 136.866 398.078 139.535C396.255 142.204 393.911 143.539 391.047 143.539ZM537.043 143.441C531.835 143.441 527.375 142.172 523.664 139.633C520.018 137.029 517.219 133.643 515.266 129.477C513.378 125.245 512.434 120.72 512.434 115.902C512.434 111.671 513.638 106.951 516.047 101.742C518.521 96.4688 522.036 91.4232 526.594 86.6055C531.151 81.7878 536.587 77.8164 542.902 74.6914C549.283 71.5013 556.216 69.9062 563.703 69.9062C569.107 69.9062 573.143 71.2083 575.812 73.8125C578.482 76.4167 579.816 80.0299 579.816 84.6523C579.816 87.3867 579.1 90.2513 577.668 93.2461C576.236 96.2409 573.762 99.2682 570.246 102.328C566.73 105.453 562.01 108.643 556.086 111.898C550.227 115.089 542.87 118.311 534.016 121.566C534.732 125.603 537.987 127.621 543.781 127.621C548.273 127.621 553.124 126.71 558.332 124.887C563.54 122.999 568.553 120.85 573.371 118.441C578.189 116.098 582.323 113.884 585.773 111.801C589.224 109.717 591.275 108.546 591.926 108.285C592.512 107.895 593.033 107.667 593.488 107.602C594.009 107.536 594.465 107.504 594.855 107.504C596.418 107.504 597.492 108.122 598.078 109.359C598.729 110.531 599.055 111.508 599.055 112.289C599.055 112.875 598.99 113.591 598.859 114.438C598.729 115.219 598.241 116.13 597.395 117.172C596.548 118.018 594.074 119.874 589.973 122.738C585.871 125.603 581.477 128.37 576.789 131.039C571.06 134.229 564.68 137.094 557.648 139.633C550.617 142.172 543.749 143.441 537.043 143.441ZM532.551 110.336C536.783 108.122 541.079 105.551 545.441 102.621C549.868 99.6263 553.221 97.4453 555.5 96.0781C558.56 94.125 560.578 92.3997 561.555 90.9023C562.661 89.2747 563.215 87.9076 563.215 86.8008C563.215 85.8242 562.889 85.043 562.238 84.457C561.652 83.8711 560.969 83.513 560.188 83.3828L559.309 83.2852H558.43C554.849 83.2852 551.529 84.3268 548.469 86.4102C545.474 88.4284 542.935 90.9674 540.852 94.0273C538.638 97.2174 536.848 100.212 535.48 103.012C534.178 105.811 533.202 108.253 532.551 110.336ZM639.777 145.102C634.113 145.102 631.281 142.986 631.281 138.754C631.281 136.28 632.16 132.829 633.918 128.402C635.741 123.91 638.247 118.474 641.438 112.094C643.13 108.708 645.051 105.03 647.199 101.059C649.348 97.0221 651.529 92.9206 653.742 88.7539C658.43 80.0299 661.066 75.0495 661.652 73.8125C662.043 72.7057 662.238 72.25 662.238 72.4453C662.238 72.5755 662.303 72.3151 662.434 71.6641H660.676C658.202 71.6641 656.216 71.4688 654.719 71.0781C653.221 70.6875 652.473 69.8411 652.473 68.5391C652.473 67.7578 652.766 66.8464 653.352 65.8047C655.109 62.5495 657.03 60.2708 659.113 58.9688C661.262 57.6016 663.345 56.7878 665.363 56.5273C667.382 56.2669 669.042 56.1367 670.344 56.1367L680.891 34.6523C685.318 25.8633 689.875 18.9622 694.562 13.9492C699.315 8.9362 704.686 5.38802 710.676 3.30469C716.73 1.15625 723.924 0.0820312 732.258 0.0820312C735.122 0.0820312 737.694 0.147135 739.973 0.277344C742.316 0.342448 744.335 0.440104 746.027 0.570312C747.72 0.700521 749.152 0.863281 750.324 1.05859C751.561 1.25391 752.505 1.41667 753.156 1.54688C755.76 2.26302 757.583 3.5 758.625 5.25781C759.732 6.95052 760.285 8.83854 760.285 10.9219C760.285 14.112 759.243 17.237 757.16 20.2969C755.077 23.2917 752.798 24.7891 750.324 24.7891C749.543 24.7891 748.924 24.6589 748.469 24.3984C745.474 23.0312 743 22.0872 741.047 21.5664C739.159 20.9805 736.066 20.6875 731.77 20.6875C729.556 20.6875 726.919 20.7526 723.859 20.8828C720.865 20.9479 717.186 21.0781 712.824 21.2734L693.879 54.0859C698.697 52.3932 704.23 51.0586 710.48 50.082C716.73 49.1055 722.557 48.6172 727.961 48.6172C732.909 48.6172 736.49 49.0078 738.703 49.7891C740.852 50.5703 741.926 52.1654 741.926 54.5742C741.926 55.0951 741.893 55.8763 741.828 56.918C741.763 57.8945 741.372 59.0339 740.656 60.3359C739.094 64.0469 737.531 66.4232 735.969 67.4648C734.471 68.4414 732.29 68.9297 729.426 68.9297C717.577 67.888 708.43 67.3672 701.984 67.3672C695.669 67.3672 690.298 67.9531 685.871 69.125C684.895 70.6875 683.43 73.1615 681.477 76.5469C679.523 79.9323 677.375 83.7734 675.031 88.0703C672.622 92.4323 670.181 97.0547 667.707 101.938C665.233 106.82 662.954 111.508 660.871 116C656.314 125.831 652.31 133.122 648.859 137.875C645.214 142.693 642.186 145.102 639.777 145.102ZM713.703 143.441C710.448 143.441 708.82 141.781 708.82 138.461C708.82 137.745 708.918 136.866 709.113 135.824C709.374 134.717 709.862 133.513 710.578 132.211C711.685 130.128 712.889 127.686 714.191 124.887C715.493 122.022 716.861 119.06 718.293 116C719.855 112.68 721.646 108.871 723.664 104.574C725.747 100.212 728.189 95.1992 730.988 89.5352C730.077 88.7539 729.296 87.8099 728.645 86.7031C728.059 85.5312 727.766 84.099 727.766 82.4062C727.766 79.3464 728.938 77.1003 731.281 75.668C733.69 74.1706 736.555 73.4219 739.875 73.4219C743.13 73.4219 746.288 74.0078 749.348 75.1797C752.473 76.2865 754.035 77.9792 754.035 80.2578C754.035 80.5182 753.807 81.1367 753.352 82.1133C752.961 83.0247 752.766 83.6432 752.766 83.9688C752.766 84.099 752.798 84.1641 752.863 84.1641H752.961L753.156 84.0664C757.974 81.0716 763.15 78.5326 768.684 76.4492C774.217 74.3659 778.775 73.3242 782.355 73.3242C785.285 73.3242 787.531 74.0404 789.094 75.4727C790.721 76.8398 791.535 79.1836 791.535 82.5039C791.535 83.2201 791.503 84.0013 791.438 84.8477C791.372 85.6289 791.242 86.4753 791.047 87.3867C790.591 89.7956 788.768 92.9206 785.578 96.7617C782.388 100.603 779.003 104.314 775.422 107.895C773.794 109.522 771.841 111.475 769.562 113.754C767.284 115.967 765.298 118.018 763.605 119.906C761.913 121.729 761.066 122.966 761.066 123.617C761.066 124.529 761.392 124.984 762.043 124.984C766.73 122.966 772.036 120.492 777.961 117.562C783.885 114.568 789.615 111.573 795.148 108.578C800.682 105.583 805.207 103.077 808.723 101.059C810.09 100.277 811.262 99.8867 812.238 99.8867C814.973 99.8867 816.34 101.319 816.34 104.184C816.34 105.681 815.689 107.406 814.387 109.359C813.15 111.247 811.034 113.233 808.039 115.316C805.24 117.074 801.398 119.516 796.516 122.641C791.698 125.701 786.913 128.598 782.16 131.332C777.473 134.001 772.98 136.28 768.684 138.168C764.452 140.056 760.904 141 758.039 141C753.547 141 750.161 139.926 747.883 137.777C745.669 135.629 744.562 132.862 744.562 129.477C744.562 128.891 744.595 128.5 744.66 128.305C745.376 124.138 746.874 120.102 749.152 116.195C751.431 112.289 753.807 108.708 756.281 105.453C758.755 102.263 760.936 99.3008 762.824 96.5664C764.777 93.832 765.754 91.4883 765.754 89.5352C765.754 88.5586 765.396 88.0703 764.68 88.0703C763.638 88.0703 761.75 88.5911 759.016 89.6328C756.281 90.6094 753.579 91.9115 750.91 93.5391C748.241 95.1667 746.418 96.8919 745.441 98.7148C744.139 100.993 742.479 104.184 740.461 108.285C738.508 112.322 736.555 116.456 734.602 120.688C732.714 124.919 731.118 128.435 729.816 131.234C728.384 134.815 726.008 137.745 722.688 140.023C719.432 142.302 716.438 143.441 713.703 143.441ZM818.684 143.441C813.475 143.441 809.016 142.172 805.305 139.633C801.659 137.029 798.859 133.643 796.906 129.477C795.018 125.245 794.074 120.72 794.074 115.902C794.074 111.671 795.279 106.951 797.688 101.742C800.161 96.4688 803.677 91.4232 808.234 86.6055C812.792 81.7878 818.228 77.8164 824.543 74.6914C830.923 71.5013 837.857 69.9062 845.344 69.9062C850.747 69.9062 854.784 71.2083 857.453 73.8125C860.122 76.4167 861.457 80.0299 861.457 84.6523C861.457 87.3867 860.741 90.2513 859.309 93.2461C857.876 96.2409 855.402 99.2682 851.887 102.328C848.371 105.453 843.651 108.643 837.727 111.898C831.867 115.089 824.51 118.311 815.656 121.566C816.372 125.603 819.628 127.621 825.422 127.621C829.914 127.621 834.764 126.71 839.973 124.887C845.181 122.999 850.194 120.85 855.012 118.441C859.829 116.098 863.964 113.884 867.414 111.801C870.865 109.717 872.915 108.546 873.566 108.285C874.152 107.895 874.673 107.667 875.129 107.602C875.65 107.536 876.105 107.504 876.496 107.504C878.059 107.504 879.133 108.122 879.719 109.359C880.37 110.531 880.695 111.508 880.695 112.289C880.695 112.875 880.63 113.591 880.5 114.438C880.37 115.219 879.882 116.13 879.035 117.172C878.189 118.018 875.715 119.874 871.613 122.738C867.512 125.603 863.117 128.37 858.43 131.039C852.701 134.229 846.32 137.094 839.289 139.633C832.258 142.172 825.389 143.441 818.684 143.441ZM814.191 110.336C818.423 108.122 822.72 105.551 827.082 102.621C831.509 99.6263 834.862 97.4453 837.141 96.0781C840.201 94.125 842.219 92.3997 843.195 90.9023C844.302 89.2747 844.855 87.9076 844.855 86.8008C844.855 85.8242 844.53 85.043 843.879 84.457C843.293 83.8711 842.609 83.513 841.828 83.3828L840.949 83.2852H840.07C836.49 83.2852 833.169 84.3268 830.109 86.4102C827.115 88.4284 824.576 90.9674 822.492 94.0273C820.279 97.2174 818.488 100.212 817.121 103.012C815.819 105.811 814.842 108.253 814.191 110.336ZM887.043 143.441C880.207 143.441 873.99 141.911 868.391 138.852C862.792 135.727 859.211 130.811 857.648 124.105C857.518 123.454 857.453 123.031 857.453 122.836C857.453 121.078 858.072 119.581 859.309 118.344C860.546 117.042 861.913 116.391 863.41 116.391C864.126 116.391 864.908 116.521 865.754 116.781C866.665 117.042 867.349 117.628 867.805 118.539C869.497 121.599 872.395 124.073 876.496 125.961C880.663 127.784 884.732 128.695 888.703 128.695C892.935 128.695 896.613 127.882 899.738 126.254C902.928 124.626 904.523 121.957 904.523 118.246C904.523 113.689 903.221 109.652 900.617 106.137C898.078 102.621 894.855 99.4635 890.949 96.6641C887.108 93.7995 883.234 91.1628 879.328 88.7539C879.003 88.5586 878.514 88.0052 877.863 87.0938C877.212 86.1172 876.887 85.1406 876.887 84.1641C876.887 83.3828 877.082 82.7643 877.473 82.3086C879.556 79.5091 882.225 76.7747 885.48 74.1055C888.736 71.4362 892.316 70.1016 896.223 70.1016C899.087 70.1016 901.431 70.8177 903.254 72.25C905.142 73.6172 906.086 74.9844 906.086 76.3516C906.086 78.1745 905.24 79.8997 903.547 81.5273C901.854 83.0898 900.096 84.5872 898.273 86.0195C906.021 90.056 912.173 95.1992 916.73 101.449C921.288 107.634 923.566 113.689 923.566 119.613C923.566 124.626 921.743 128.923 918.098 132.504C914.517 136.02 909.927 138.721 904.328 140.609C898.794 142.497 893.033 143.441 887.043 143.441ZM924.445 143.441C922.167 143.441 920.409 142.758 919.172 141.391C917.935 140.089 917.316 138.428 917.316 136.41C917.316 133.676 918.423 130.062 920.637 125.57C922.785 121.078 925.227 116.098 927.961 110.629C930.695 105.095 933.365 99.7565 935.969 94.6133C938.638 89.4701 940.819 85.1732 942.512 81.7227L974.738 18.3438C975.52 16.651 977.049 15.1536 979.328 13.8516C981.607 12.4844 983.885 11.8008 986.164 11.8008C989.029 11.8008 991.014 12.3542 992.121 13.4609C993.228 14.5026 993.781 15.8047 993.781 17.3672C993.781 18.7995 993.423 20.3294 992.707 21.957C991.991 23.5195 991.177 24.9844 990.266 26.3516C984.927 35.5312 979.621 45.362 974.348 55.8438C969.074 66.3255 963.54 76.3841 957.746 86.0195C960.22 83.6107 962.889 81.2018 965.754 78.793C968.618 76.319 971.841 74.2357 975.422 72.543C979.003 70.8503 983.104 70.0039 987.727 70.0039C992.023 70.0039 995.702 70.8503 998.762 72.543C1001.82 74.2357 1003.35 77.2956 1003.35 81.7227C1003.35 85.8893 1002.44 89.6979 1000.62 93.1484C998.794 96.599 996.646 99.8542 994.172 102.914C991.763 105.909 989.517 109.001 987.434 112.191C985.35 115.382 984.113 118.865 983.723 122.641V123.031L983.625 123.422C983.625 124.724 984.048 125.538 984.895 125.863C985.806 126.189 986.945 126.352 988.312 126.352C990.982 126.352 993.846 125.635 996.906 124.203C1000.03 122.706 1003.16 120.883 1006.28 118.734C1009.34 116.586 1012.17 114.372 1014.78 112.094C1017.45 109.815 1019.6 107.895 1021.22 106.332C1022.33 105.29 1023.57 104.77 1024.93 104.77C1026.11 104.77 1027.08 105.225 1027.86 106.137C1028.71 106.983 1029.13 108.155 1029.13 109.652C1029.13 111.02 1028.64 112.582 1027.67 114.34C1026.76 116.098 1025.16 117.855 1022.88 119.613C1018.2 123.65 1013.35 127.491 1008.33 131.137C1003.38 134.783 998.371 137.745 993.293 140.023C988.28 142.302 983.332 143.441 978.449 143.441C973.827 143.441 970.116 142.4 967.316 140.316C964.517 138.168 963.117 134.815 963.117 130.258C963.117 125.766 964.126 121.469 966.145 117.367C968.228 113.266 970.539 109.457 973.078 105.941C975.682 102.426 977.766 99.3333 979.328 96.6641C980.109 95.5573 980.695 94.5482 981.086 93.6367C981.542 92.6602 981.77 91.6185 981.77 90.5117C981.77 88.2982 980.695 87.1914 978.547 87.1914C973.469 87.1914 968.879 88.7865 964.777 91.9766C960.741 95.1016 957.062 98.9753 953.742 103.598C950.487 108.155 947.492 112.582 944.758 116.879C943.456 118.897 942.089 121.371 940.656 124.301C939.224 127.23 937.629 130.225 935.871 133.285C934.243 136.15 932.453 138.559 930.5 140.512C928.547 142.465 926.529 143.441 924.445 143.441ZM1034.89 143.441C1029.69 143.441 1025.23 142.172 1021.52 139.633C1017.87 137.029 1015.07 133.643 1013.12 129.477C1011.23 125.245 1010.29 120.72 1010.29 115.902C1010.29 111.671 1011.49 106.951 1013.9 101.742C1016.37 96.4688 1019.89 91.4232 1024.45 86.6055C1029 81.7878 1034.44 77.8164 1040.75 74.6914C1047.13 71.5013 1054.07 69.9062 1061.55 69.9062C1066.96 69.9062 1070.99 71.2083 1073.66 73.8125C1076.33 76.4167 1077.67 80.0299 1077.67 84.6523C1077.67 87.3867 1076.95 90.2513 1075.52 93.2461C1074.09 96.2409 1071.61 99.2682 1068.1 102.328C1064.58 105.453 1059.86 108.643 1053.94 111.898C1048.08 115.089 1040.72 118.311 1031.87 121.566C1032.58 125.603 1035.84 127.621 1041.63 127.621C1046.12 127.621 1050.98 126.71 1056.18 124.887C1061.39 122.999 1066.4 120.85 1071.22 118.441C1076.04 116.098 1080.17 113.884 1083.62 111.801C1087.08 109.717 1089.13 108.546 1089.78 108.285C1090.36 107.895 1090.88 107.667 1091.34 107.602C1091.86 107.536 1092.32 107.504 1092.71 107.504C1094.27 107.504 1095.34 108.122 1095.93 109.359C1096.58 110.531 1096.91 111.508 1096.91 112.289C1096.91 112.875 1096.84 113.591 1096.71 114.438C1096.58 115.219 1096.09 116.13 1095.25 117.172C1094.4 118.018 1091.93 119.874 1087.82 122.738C1083.72 125.603 1079.33 128.37 1074.64 131.039C1068.91 134.229 1062.53 137.094 1055.5 139.633C1048.47 142.172 1041.6 143.441 1034.89 143.441ZM1030.4 110.336C1034.63 108.122 1038.93 105.551 1043.29 102.621C1047.72 99.6263 1051.07 97.4453 1053.35 96.0781C1056.41 94.125 1058.43 92.3997 1059.41 90.9023C1060.51 89.2747 1061.07 87.9076 1061.07 86.8008C1061.07 85.8242 1060.74 85.043 1060.09 84.457C1059.5 83.8711 1058.82 83.513 1058.04 83.3828L1057.16 83.2852H1056.28C1052.7 83.2852 1049.38 84.3268 1046.32 86.4102C1043.33 88.4284 1040.79 90.9674 1038.7 94.0273C1036.49 97.2174 1034.7 100.212 1033.33 103.012C1032.03 105.811 1031.05 108.253 1030.4 110.336ZM1081.09 143.441C1077.83 143.441 1076.2 141.781 1076.2 138.461C1076.2 137.745 1076.3 136.866 1076.5 135.824C1076.76 134.717 1077.24 133.513 1077.96 132.211C1079.07 130.128 1080.27 127.686 1081.57 124.887C1082.88 122.022 1084.24 119.06 1085.68 116C1087.24 112.68 1089.03 108.871 1091.05 104.574C1093.13 100.212 1095.57 95.1992 1098.37 89.5352C1097.46 88.7539 1096.68 87.8099 1096.03 86.7031C1095.44 85.5312 1095.15 84.099 1095.15 82.4062C1095.15 79.3464 1096.32 77.1003 1098.66 75.668C1101.07 74.1706 1103.94 73.4219 1107.26 73.4219C1110.51 73.4219 1113.67 74.0078 1116.73 75.1797C1119.86 76.2865 1121.42 77.9792 1121.42 80.2578C1121.42 80.5182 1121.19 81.1367 1120.73 82.1133C1120.34 83.0247 1120.15 83.6432 1120.15 83.9688C1120.15 84.099 1120.18 84.1641 1120.25 84.1641H1120.34L1120.54 84.0664C1125.36 81.0716 1130.53 78.5326 1136.07 76.4492C1141.6 74.3659 1146.16 73.3242 1149.74 73.3242C1152.67 73.3242 1154.91 74.0404 1156.48 75.4727C1158.1 76.8398 1158.92 79.1836 1158.92 82.5039C1158.92 83.2201 1158.89 84.0013 1158.82 84.8477C1158.76 85.6289 1158.62 86.4753 1158.43 87.3867C1157.97 89.7956 1156.15 92.9206 1152.96 96.7617C1149.77 100.603 1146.39 104.314 1142.8 107.895C1141.18 109.522 1139.22 111.475 1136.95 113.754C1134.67 115.967 1132.68 118.018 1130.99 119.906C1129.3 121.729 1128.45 122.966 1128.45 123.617C1128.45 124.529 1128.77 124.984 1129.43 124.984C1134.11 122.966 1139.42 120.492 1145.34 117.562C1151.27 114.568 1157 111.573 1162.53 108.578C1168.07 105.583 1172.59 103.077 1176.11 101.059C1177.47 100.277 1178.64 99.8867 1179.62 99.8867C1182.36 99.8867 1183.72 101.319 1183.72 104.184C1183.72 105.681 1183.07 107.406 1181.77 109.359C1180.53 111.247 1178.42 113.233 1175.42 115.316C1172.62 117.074 1168.78 119.516 1163.9 122.641C1159.08 125.701 1154.3 128.598 1149.54 131.332C1144.86 134.001 1140.36 136.28 1136.07 138.168C1131.83 140.056 1128.29 141 1125.42 141C1120.93 141 1117.54 139.926 1115.27 137.777C1113.05 135.629 1111.95 132.862 1111.95 129.477C1111.95 128.891 1111.98 128.5 1112.04 128.305C1112.76 124.138 1114.26 120.102 1116.54 116.195C1118.81 112.289 1121.19 108.708 1123.66 105.453C1126.14 102.263 1128.32 99.3008 1130.21 96.5664C1132.16 93.832 1133.14 91.4883 1133.14 89.5352C1133.14 88.5586 1132.78 88.0703 1132.06 88.0703C1131.02 88.0703 1129.13 88.5911 1126.4 89.6328C1123.66 90.6094 1120.96 91.9115 1118.29 93.5391C1115.62 95.1667 1113.8 96.8919 1112.82 98.7148C1111.52 100.993 1109.86 104.184 1107.84 108.285C1105.89 112.322 1103.94 116.456 1101.98 120.688C1100.1 124.919 1098.5 128.435 1097.2 131.234C1095.77 134.815 1093.39 137.745 1090.07 140.023C1086.82 142.302 1083.82 143.441 1081.09 143.441ZM1185.68 143.441C1178.84 143.441 1172.62 141.911 1167.02 138.852C1161.42 135.727 1157.84 130.811 1156.28 124.105C1156.15 123.454 1156.09 123.031 1156.09 122.836C1156.09 121.078 1156.7 119.581 1157.94 118.344C1159.18 117.042 1160.55 116.391 1162.04 116.391C1162.76 116.391 1163.54 116.521 1164.39 116.781C1165.3 117.042 1165.98 117.628 1166.44 118.539C1168.13 121.599 1171.03 124.073 1175.13 125.961C1179.3 127.784 1183.36 128.695 1187.34 128.695C1191.57 128.695 1195.25 127.882 1198.37 126.254C1201.56 124.626 1203.16 121.957 1203.16 118.246C1203.16 113.689 1201.85 109.652 1199.25 106.137C1196.71 102.621 1193.49 99.4635 1189.58 96.6641C1185.74 93.7995 1181.87 91.1628 1177.96 88.7539C1177.64 88.5586 1177.15 88.0052 1176.5 87.0938C1175.85 86.1172 1175.52 85.1406 1175.52 84.1641C1175.52 83.3828 1175.71 82.7643 1176.11 82.3086C1178.19 79.5091 1180.86 76.7747 1184.11 74.1055C1187.37 71.4362 1190.95 70.1016 1194.86 70.1016C1197.72 70.1016 1200.06 70.8177 1201.89 72.25C1203.77 73.6172 1204.72 74.9844 1204.72 76.3516C1204.72 78.1745 1203.87 79.8997 1202.18 81.5273C1200.49 83.0898 1198.73 84.5872 1196.91 86.0195C1204.65 90.056 1210.81 95.1992 1215.36 101.449C1219.92 107.634 1222.2 113.689 1222.2 119.613C1222.2 124.626 1220.38 128.923 1216.73 132.504C1213.15 136.02 1208.56 138.721 1202.96 140.609C1197.43 142.497 1191.67 143.441 1185.68 143.441ZM1307.94 142.562C1304.82 142.562 1302.15 141.423 1299.93 139.145C1297.79 136.801 1296.71 134.099 1296.71 131.039C1296.71 127.133 1298.11 123.682 1300.91 120.688C1303.71 117.693 1307.13 116.195 1311.16 116.195C1314.35 116.195 1316.93 117.27 1318.88 119.418C1320.9 121.566 1321.91 124.236 1321.91 127.426C1321.91 131.527 1320.51 135.076 1317.71 138.07C1314.91 141.065 1311.65 142.562 1307.94 142.562ZM1379.43 142.562C1376.3 142.562 1373.63 141.423 1371.42 139.145C1369.27 136.801 1368.2 134.099 1368.2 131.039C1368.2 127.133 1369.6 123.682 1372.39 120.688C1375.19 117.693 1378.61 116.195 1382.65 116.195C1385.84 116.195 1388.41 117.27 1390.36 119.418C1392.38 121.566 1393.39 124.236 1393.39 127.426C1393.39 131.527 1391.99 135.076 1389.19 138.07C1386.39 141.065 1383.14 142.562 1379.43 142.562ZM1450.91 142.562C1447.79 142.562 1445.12 141.423 1442.9 139.145C1440.75 136.801 1439.68 134.099 1439.68 131.039C1439.68 127.133 1441.08 123.682 1443.88 120.688C1446.68 117.693 1450.1 116.195 1454.13 116.195C1457.32 116.195 1459.89 117.27 1461.85 119.418C1463.87 121.566 1464.88 124.236 1464.88 127.426C1464.88 131.527 1463.48 135.076 1460.68 138.07C1457.88 141.065 1454.62 142.562 1450.91 142.562Z" fill="#fff"/>
</svg>
